<mxfile host="app.diagrams.net" modified="2023-06-23T16:58:54.392Z" agent="Mozilla/5.0 (Windows NT 10.0; Win64; x64) AppleWebKit/537.36 (KHTML, like Gecko) Chrome/114.0.0.0 Safari/537.36 Edg/114.0.1823.51" etag="ZTC3bl9Js9_mhMFsbb-e" version="21.3.4" type="github">
  <diagram name="Strona-1" id="4Xbm-37L4mwFBQj9XzH_">
    <mxGraphModel dx="1301" dy="631" grid="1" gridSize="10" guides="1" tooltips="1" connect="1" arrows="1" fold="1" page="1" pageScale="1" pageWidth="827" pageHeight="1169" math="0" shadow="0">
      <root>
        <mxCell id="0" />
        <mxCell id="1" parent="0" />
        <mxCell id="R5YZa_4t7FbfqmxguwtJ-12" style="edgeStyle=orthogonalEdgeStyle;rounded=0;orthogonalLoop=1;jettySize=auto;html=1;entryX=0.5;entryY=0;entryDx=0;entryDy=0;" edge="1" parent="1" source="R5YZa_4t7FbfqmxguwtJ-1" target="R5YZa_4t7FbfqmxguwtJ-6">
          <mxGeometry relative="1" as="geometry" />
        </mxCell>
        <mxCell id="R5YZa_4t7FbfqmxguwtJ-13" style="edgeStyle=orthogonalEdgeStyle;rounded=0;orthogonalLoop=1;jettySize=auto;html=1;exitX=0.5;exitY=1;exitDx=0;exitDy=0;entryX=0.5;entryY=0;entryDx=0;entryDy=0;" edge="1" parent="1" source="R5YZa_4t7FbfqmxguwtJ-1" target="R5YZa_4t7FbfqmxguwtJ-11">
          <mxGeometry relative="1" as="geometry" />
        </mxCell>
        <mxCell id="R5YZa_4t7FbfqmxguwtJ-14" style="edgeStyle=orthogonalEdgeStyle;rounded=0;orthogonalLoop=1;jettySize=auto;html=1;exitX=0.5;exitY=1;exitDx=0;exitDy=0;entryX=0.5;entryY=0;entryDx=0;entryDy=0;" edge="1" parent="1" source="R5YZa_4t7FbfqmxguwtJ-1" target="R5YZa_4t7FbfqmxguwtJ-10">
          <mxGeometry relative="1" as="geometry" />
        </mxCell>
        <mxCell id="R5YZa_4t7FbfqmxguwtJ-15" style="edgeStyle=orthogonalEdgeStyle;rounded=0;orthogonalLoop=1;jettySize=auto;html=1;exitX=0.5;exitY=1;exitDx=0;exitDy=0;entryX=0.5;entryY=0;entryDx=0;entryDy=0;" edge="1" parent="1" source="R5YZa_4t7FbfqmxguwtJ-1" target="R5YZa_4t7FbfqmxguwtJ-9">
          <mxGeometry relative="1" as="geometry" />
        </mxCell>
        <mxCell id="R5YZa_4t7FbfqmxguwtJ-16" style="edgeStyle=orthogonalEdgeStyle;rounded=0;orthogonalLoop=1;jettySize=auto;html=1;exitX=0.5;exitY=1;exitDx=0;exitDy=0;entryX=0.5;entryY=0;entryDx=0;entryDy=0;" edge="1" parent="1" source="R5YZa_4t7FbfqmxguwtJ-1" target="R5YZa_4t7FbfqmxguwtJ-7">
          <mxGeometry relative="1" as="geometry" />
        </mxCell>
        <mxCell id="R5YZa_4t7FbfqmxguwtJ-17" style="edgeStyle=orthogonalEdgeStyle;rounded=0;orthogonalLoop=1;jettySize=auto;html=1;exitX=0.5;exitY=1;exitDx=0;exitDy=0;entryX=0.5;entryY=0;entryDx=0;entryDy=0;" edge="1" parent="1" source="R5YZa_4t7FbfqmxguwtJ-1" target="R5YZa_4t7FbfqmxguwtJ-8">
          <mxGeometry relative="1" as="geometry" />
        </mxCell>
        <mxCell id="R5YZa_4t7FbfqmxguwtJ-19" value="control_status" style="edgeLabel;html=1;align=center;verticalAlign=middle;resizable=0;points=[];" vertex="1" connectable="0" parent="R5YZa_4t7FbfqmxguwtJ-17">
          <mxGeometry x="-0.9426" y="2" relative="1" as="geometry">
            <mxPoint x="-2" y="7" as="offset" />
          </mxGeometry>
        </mxCell>
        <mxCell id="R5YZa_4t7FbfqmxguwtJ-1" value="body_IK_node" style="rounded=1;whiteSpace=wrap;html=1;fillColor=#B5739D;" vertex="1" parent="1">
          <mxGeometry x="360" y="300" width="120" height="60" as="geometry" />
        </mxCell>
        <mxCell id="R5YZa_4t7FbfqmxguwtJ-3" value="body_IK_calculations" style="edgeStyle=orthogonalEdgeStyle;rounded=0;orthogonalLoop=1;jettySize=auto;html=1;" edge="1" parent="1">
          <mxGeometry x="-0.3" relative="1" as="geometry">
            <mxPoint x="420" y="239.0000000000001" as="sourcePoint" />
            <mxPoint x="420" y="299.0000000000001" as="targetPoint" />
            <mxPoint as="offset" />
          </mxGeometry>
        </mxCell>
        <mxCell id="R5YZa_4t7FbfqmxguwtJ-2" value="keyboard_node" style="rounded=1;whiteSpace=wrap;html=1;fillColor=#B5739D;" vertex="1" parent="1">
          <mxGeometry x="360" y="180" width="120" height="60" as="geometry" />
        </mxCell>
        <mxCell id="R5YZa_4t7FbfqmxguwtJ-6" value="leg_3_node" style="rounded=1;whiteSpace=wrap;html=1;fillColor=#B5739D;" vertex="1" parent="1">
          <mxGeometry x="301.25" y="460" width="97.5" height="40" as="geometry" />
        </mxCell>
        <mxCell id="R5YZa_4t7FbfqmxguwtJ-7" value="leg_2_node" style="rounded=1;whiteSpace=wrap;html=1;fillColor=#B5739D;" vertex="1" parent="1">
          <mxGeometry x="160" y="460" width="97.5" height="40" as="geometry" />
        </mxCell>
        <mxCell id="R5YZa_4t7FbfqmxguwtJ-8" value="leg_1_node&lt;br&gt;" style="rounded=1;whiteSpace=wrap;html=1;fillColor=#B5739D;" vertex="1" parent="1">
          <mxGeometry x="20" y="460" width="97.5" height="40" as="geometry" />
        </mxCell>
        <mxCell id="R5YZa_4t7FbfqmxguwtJ-9" value="leg_6_node" style="rounded=1;whiteSpace=wrap;html=1;fillColor=#B5739D;" vertex="1" parent="1">
          <mxGeometry x="721.25" y="460" width="97.5" height="40" as="geometry" />
        </mxCell>
        <mxCell id="R5YZa_4t7FbfqmxguwtJ-10" value="leg_5_node" style="rounded=1;whiteSpace=wrap;html=1;fillColor=#B5739D;" vertex="1" parent="1">
          <mxGeometry x="580" y="460" width="97.5" height="40" as="geometry" />
        </mxCell>
        <mxCell id="R5YZa_4t7FbfqmxguwtJ-11" value="leg_4_node" style="rounded=1;whiteSpace=wrap;html=1;fillColor=#B5739D;" vertex="1" parent="1">
          <mxGeometry x="440" y="460" width="97.5" height="40" as="geometry" />
        </mxCell>
        <mxCell id="R5YZa_4t7FbfqmxguwtJ-20" value="leg_1" style="curved=1;endArrow=classic;html=1;rounded=0;exitX=0.25;exitY=1;exitDx=0;exitDy=0;entryX=0.75;entryY=1;entryDx=0;entryDy=0;" edge="1" parent="1" source="R5YZa_4t7FbfqmxguwtJ-8" target="R5YZa_4t7FbfqmxguwtJ-8">
          <mxGeometry width="50" height="50" relative="1" as="geometry">
            <mxPoint x="100" y="570" as="sourcePoint" />
            <mxPoint x="150" y="520" as="targetPoint" />
            <Array as="points">
              <mxPoint x="40" y="540" />
              <mxPoint x="100" y="540" />
            </Array>
          </mxGeometry>
        </mxCell>
        <mxCell id="R5YZa_4t7FbfqmxguwtJ-22" value="" style="curved=1;endArrow=classic;html=1;rounded=0;" edge="1" parent="1">
          <mxGeometry width="50" height="50" relative="1" as="geometry">
            <mxPoint x="420" y="270" as="sourcePoint" />
            <mxPoint x="420" y="410" as="targetPoint" />
            <Array as="points">
              <mxPoint x="310" y="290" />
              <mxPoint x="300" y="390" />
            </Array>
          </mxGeometry>
        </mxCell>
        <mxCell id="R5YZa_4t7FbfqmxguwtJ-24" value="leg_2" style="curved=1;endArrow=classic;html=1;rounded=0;exitX=0.25;exitY=1;exitDx=0;exitDy=0;entryX=0.75;entryY=1;entryDx=0;entryDy=0;" edge="1" parent="1">
          <mxGeometry width="50" height="50" relative="1" as="geometry">
            <mxPoint x="182.75" y="500" as="sourcePoint" />
            <mxPoint x="231.75" y="500" as="targetPoint" />
            <Array as="points">
              <mxPoint x="178.75" y="540" />
              <mxPoint x="238.75" y="540" />
            </Array>
          </mxGeometry>
        </mxCell>
        <mxCell id="R5YZa_4t7FbfqmxguwtJ-25" value="leg_3" style="curved=1;endArrow=classic;html=1;rounded=0;exitX=0.25;exitY=1;exitDx=0;exitDy=0;entryX=0.75;entryY=1;entryDx=0;entryDy=0;" edge="1" parent="1">
          <mxGeometry width="50" height="50" relative="1" as="geometry">
            <mxPoint x="324" y="500" as="sourcePoint" />
            <mxPoint x="373" y="500" as="targetPoint" />
            <Array as="points">
              <mxPoint x="320" y="540" />
              <mxPoint x="380" y="540" />
            </Array>
          </mxGeometry>
        </mxCell>
        <mxCell id="R5YZa_4t7FbfqmxguwtJ-26" value="leg_4" style="curved=1;endArrow=classic;html=1;rounded=0;exitX=0.25;exitY=1;exitDx=0;exitDy=0;entryX=0.75;entryY=1;entryDx=0;entryDy=0;" edge="1" parent="1">
          <mxGeometry width="50" height="50" relative="1" as="geometry">
            <mxPoint x="462.75" y="500" as="sourcePoint" />
            <mxPoint x="511.75" y="500" as="targetPoint" />
            <Array as="points">
              <mxPoint x="458.75" y="540" />
              <mxPoint x="518.75" y="540" />
            </Array>
          </mxGeometry>
        </mxCell>
        <mxCell id="R5YZa_4t7FbfqmxguwtJ-27" value="leg_5" style="curved=1;endArrow=classic;html=1;rounded=0;exitX=0.25;exitY=1;exitDx=0;exitDy=0;entryX=0.75;entryY=1;entryDx=0;entryDy=0;" edge="1" parent="1">
          <mxGeometry width="50" height="50" relative="1" as="geometry">
            <mxPoint x="602.75" y="500" as="sourcePoint" />
            <mxPoint x="651.75" y="500" as="targetPoint" />
            <Array as="points">
              <mxPoint x="598.75" y="540" />
              <mxPoint x="658.75" y="540" />
            </Array>
          </mxGeometry>
        </mxCell>
        <mxCell id="R5YZa_4t7FbfqmxguwtJ-28" value="leg_6" style="curved=1;endArrow=classic;html=1;rounded=0;exitX=0.25;exitY=1;exitDx=0;exitDy=0;entryX=0.75;entryY=1;entryDx=0;entryDy=0;" edge="1" parent="1">
          <mxGeometry width="50" height="50" relative="1" as="geometry">
            <mxPoint x="744" y="500" as="sourcePoint" />
            <mxPoint x="793" y="500" as="targetPoint" />
            <Array as="points">
              <mxPoint x="740" y="540" />
              <mxPoint x="800" y="540" />
            </Array>
          </mxGeometry>
        </mxCell>
        <mxCell id="R5YZa_4t7FbfqmxguwtJ-30" value="" style="edgeStyle=orthogonalEdgeStyle;rounded=0;orthogonalLoop=1;jettySize=auto;html=1;" edge="1" parent="1" source="R5YZa_4t7FbfqmxguwtJ-29" target="R5YZa_4t7FbfqmxguwtJ-1">
          <mxGeometry relative="1" as="geometry" />
        </mxCell>
        <mxCell id="R5YZa_4t7FbfqmxguwtJ-29" value="CV_node (future feature)" style="rounded=1;whiteSpace=wrap;html=1;fillColor=#CCCCCC;" vertex="1" parent="1">
          <mxGeometry x="568.75" y="300" width="120" height="60" as="geometry" />
        </mxCell>
      </root>
    </mxGraphModel>
  </diagram>
</mxfile>
